<svg width="116" height="104" viewBox="0 0 116 104" fill="none" xmlns="http://www.w3.org/2000/svg">
<path d="M7.4184 75.3853C7.4184 75.3853 -7.86683 53.3853 38.418 23.3856C92.4179 -11.6147 118.639 -0.825329 109.918 23.3855C101.197 47.5964 120.918 57.3853 106.418 65.3854C91.918 73.3855 94.5237 74.3353 82.918 80.8854C63.2002 92.0139 60.918 90.8854 27.9109 101.18C-5.09615 111.475 7.4184 75.3853 7.4184 75.3853Z" fill="#2A153A" stroke="black"/>
<path d="M14.6461 60.6784C14.6221 60.9904 14.5021 61.2544 14.2861 61.4704C14.0701 61.6864 13.8061 61.7944 13.4941 61.7944C13.1581 61.7944 12.8821 61.6984 12.6661 61.5064C12.4741 61.2904 12.3781 61.0144 12.3781 60.6784V37.7104C12.3781 37.3744 12.4861 37.1104 12.7021 36.9184C12.9181 36.7024 13.1941 36.5944 13.5301 36.5944C13.8421 36.5944 14.1061 36.7024 14.3221 36.9184C14.5381 37.1344 14.6461 37.3984 14.6461 37.7104V60.6784ZM40.3501 60.0304C40.5181 60.2704 40.6021 60.5224 40.6021 60.7864C40.6021 61.1464 40.4701 61.4344 40.2061 61.6504C39.9661 61.8424 39.6901 61.9384 39.3781 61.9384C39.0661 61.9384 38.8021 61.8064 38.5861 61.5424L28.5421 48.9064L23.6461 53.5144V60.6784C23.6221 61.0144 23.5021 61.2904 23.2861 61.5064C23.0701 61.6984 22.8061 61.7944 22.4941 61.7944C22.1581 61.7944 21.8821 61.6984 21.6661 61.5064C21.4741 61.2904 21.3781 61.0144 21.3781 60.6784V37.7104C21.3781 37.3744 21.4861 37.1104 21.7021 36.9184C21.9181 36.7024 22.1941 36.5944 22.5301 36.5944C22.8661 36.5944 23.1301 36.7024 23.3221 36.9184C23.5381 37.1104 23.6461 37.3744 23.6461 37.7104V50.7784L38.1901 37.0264C38.4061 36.7864 38.6701 36.6664 38.9821 36.6664C39.2701 36.6664 39.5101 36.7744 39.7021 36.9904C39.9181 37.2064 40.0261 37.4464 40.0261 37.7104C40.0261 37.9984 39.9181 38.2504 39.7021 38.4664L30.2701 47.2864L40.3501 60.0304ZM47.9391 60.6784C47.9151 60.9904 47.7951 61.2544 47.5791 61.4704C47.3631 61.6864 47.0991 61.7944 46.7871 61.7944C46.4511 61.7944 46.1751 61.6984 45.9591 61.5064C45.7671 61.2904 45.6711 61.0144 45.6711 60.6784V37.7104C45.6711 37.3744 45.7791 37.1104 45.9951 36.9184C46.2111 36.7024 46.4871 36.5944 46.8231 36.5944C47.1351 36.5944 47.3991 36.7024 47.6151 36.9184C47.8311 37.1344 47.9391 37.3984 47.9391 37.7104V60.6784ZM73.0671 49.0864C73.3791 49.0864 73.6311 49.1944 73.8231 49.4104C74.0391 49.6024 74.1471 49.8544 74.1471 50.1664V58.8424C74.1471 59.2504 73.9671 59.5744 73.6071 59.8144C72.5271 60.5584 71.3271 61.1344 70.0071 61.5424C68.6871 61.9504 67.3431 62.1544 65.9751 62.1544C63.5271 62.1544 61.3191 61.5904 59.3511 60.4624C57.3831 59.3344 55.8351 57.7864 54.7071 55.8184C53.5791 53.8504 53.0151 51.6424 53.0151 49.1944C53.0151 46.7464 53.5791 44.5384 54.7071 42.5704C55.8351 40.6024 57.3831 39.0544 59.3511 37.9264C61.3191 36.7984 63.5271 36.2344 65.9751 36.2344C67.2471 36.2344 68.4711 36.3904 69.6471 36.7024C70.8471 37.0144 71.9151 37.4584 72.8511 38.0344C73.1871 38.2504 73.3551 38.5504 73.3551 38.9344C73.3551 39.2464 73.2471 39.5104 73.0311 39.7264C72.8391 39.9424 72.6111 40.0504 72.3471 40.0504C72.1071 40.0504 71.8911 39.9904 71.6991 39.8704C69.8991 38.8864 67.9911 38.3944 65.9751 38.3944C63.9351 38.3944 62.0991 38.8624 60.4671 39.7984C58.8591 40.7344 57.5991 42.0304 56.6871 43.6864C55.7751 45.3184 55.3191 47.1544 55.3191 49.1944C55.3191 51.2344 55.7751 53.0824 56.6871 54.7384C57.5991 56.3704 58.8591 57.6544 60.4671 58.5904C62.0991 59.5264 63.9351 59.9944 65.9751 59.9944C67.0071 59.9944 68.0391 59.8504 69.0711 59.5624C70.1271 59.2744 71.0631 58.8784 71.8791 58.3744V51.2464H66.1911C65.8791 51.2464 65.6151 51.1504 65.3991 50.9584C65.1831 50.7424 65.0751 50.4784 65.0751 50.1664C65.0751 49.8544 65.1831 49.6024 65.3991 49.4104C65.6151 49.1944 65.8791 49.0864 66.1911 49.0864H73.0671ZM98.4944 60.3544C98.5424 60.5464 98.5664 60.6904 98.5664 60.7864C98.5664 61.0984 98.4584 61.3504 98.2424 61.5424C98.0264 61.7344 97.7744 61.8304 97.4864 61.8304C97.2464 61.8304 97.0304 61.7704 96.8384 61.6504C96.6704 61.5064 96.5384 61.3264 96.4424 61.1104L93.7424 54.5224H82.0424L79.3784 61.1104C79.1864 61.5904 78.8624 61.8304 78.4064 61.8304C78.0704 61.8304 77.8184 61.7464 77.6504 61.5784C77.4824 61.4104 77.3864 61.1824 77.3624 60.8944V60.7864C77.3624 60.6424 77.3744 60.5344 77.3984 60.4624L86.9024 37.2064C87.0944 36.7264 87.4544 36.4864 87.9824 36.4864C88.2224 36.4864 88.4264 36.5584 88.5944 36.7024C88.7864 36.8224 88.9304 36.9904 89.0264 37.2064L98.4944 60.3544ZM92.8784 52.3984L87.8384 40.0864L82.8704 52.3984H92.8784ZM105.279 60.6784C105.255 60.9904 105.135 61.2544 104.919 61.4704C104.703 61.6864 104.439 61.7944 104.127 61.7944C103.791 61.7944 103.515 61.6984 103.299 61.5064C103.107 61.2904 103.011 61.0144 103.011 60.6784V37.7104C103.011 37.3744 103.119 37.1104 103.335 36.9184C103.551 36.7024 103.827 36.5944 104.163 36.5944C104.475 36.5944 104.739 36.7024 104.955 36.9184C105.171 37.1344 105.279 37.3984 105.279 37.7104V60.6784Z" fill="#E49A3D"/>
<path d="M17.7781 72.1944C17.9341 72.1944 18.0601 72.2484 18.1561 72.3564C18.2641 72.4524 18.3181 72.5784 18.3181 72.7344C18.3181 72.8784 18.2641 73.0044 18.1561 73.1124C18.0601 73.2084 17.9341 73.2564 17.7781 73.2564H11.7841V77.7744H16.9681C17.1241 77.7744 17.2501 77.8224 17.3461 77.9184C17.4541 78.0144 17.5081 78.1404 17.5081 78.2964C17.5081 78.4524 17.4541 78.5784 17.3461 78.6744C17.2501 78.7704 17.1241 78.8184 16.9681 78.8184H11.7841V84.2544C11.7841 84.4104 11.7301 84.5424 11.6221 84.6504C11.5261 84.7464 11.4001 84.7944 11.2441 84.7944C11.0761 84.7944 10.9381 84.7464 10.8301 84.6504C10.7341 84.5424 10.6861 84.4104 10.6861 84.2544V72.7344C10.6861 72.5784 10.7341 72.4524 10.8301 72.3564C10.9381 72.2484 11.0701 72.1944 11.2261 72.1944H17.7781ZM22.0155 84.2364C22.0035 84.3924 21.9435 84.5244 21.8355 84.6324C21.7275 84.7404 21.5955 84.7944 21.4395 84.7944C21.2715 84.7944 21.1335 84.7464 21.0255 84.6504C20.9295 84.5424 20.8815 84.4044 20.8815 84.2364V72.7524C20.8815 72.5844 20.9355 72.4524 21.0435 72.3564C21.1515 72.2484 21.2895 72.1944 21.4575 72.1944C21.6135 72.1944 21.7455 72.2484 21.8535 72.3564C21.9615 72.4644 22.0155 72.5964 22.0155 72.7524V84.2364ZM34.5975 72.1944C34.7535 72.1944 34.8735 72.2424 34.9575 72.3384C35.0535 72.4344 35.1015 72.5544 35.1015 72.6984V84.2184C35.1015 84.3984 35.0475 84.5424 34.9395 84.6504C34.8315 84.7464 34.6995 84.7944 34.5435 84.7944C34.4595 84.7944 34.3755 84.7764 34.2915 84.7404C34.2195 84.7044 34.1595 84.6624 34.1115 84.6144L26.3895 74.2104V84.3084C26.3895 84.4404 26.3355 84.5544 26.2275 84.6504C26.1315 84.7464 26.0175 84.7944 25.8855 84.7944C25.7415 84.7944 25.6215 84.7464 25.5255 84.6504C25.4295 84.5544 25.3815 84.4404 25.3815 84.3084V72.7344C25.3815 72.5664 25.4295 72.4344 25.5255 72.3384C25.6335 72.2424 25.7595 72.1944 25.9035 72.1944C26.0955 72.1944 26.2395 72.2604 26.3355 72.3924L34.0935 82.8504V72.6984C34.0935 72.5544 34.1415 72.4344 34.2375 72.3384C34.3335 72.2424 34.4535 72.1944 34.5975 72.1944ZM43.6072 72.1944C44.7592 72.1944 45.7252 72.4824 46.5052 73.0584C47.2972 73.6224 47.8852 74.3844 48.2692 75.3444C48.6652 76.2924 48.8632 77.3424 48.8632 78.4944C48.8632 79.6824 48.6652 80.7504 48.2692 81.6984C47.8852 82.6464 47.2972 83.4024 46.5052 83.9664C45.7252 84.5184 44.7592 84.7944 43.6072 84.7944H39.0172C38.8612 84.7944 38.7292 84.7464 38.6212 84.6504C38.5252 84.5424 38.4772 84.4104 38.4772 84.2544V72.7344C38.4772 72.5784 38.5252 72.4524 38.6212 72.3564C38.7292 72.2484 38.8612 72.1944 39.0172 72.1944H43.6072ZM43.4272 83.7324C44.8672 83.7324 45.9412 83.2524 46.6492 82.2924C47.3572 81.3204 47.7112 80.0544 47.7112 78.4944C47.7112 77.5224 47.5612 76.6464 47.2612 75.8664C46.9612 75.0744 46.4872 74.4444 45.8392 73.9764C45.2032 73.4964 44.3992 73.2564 43.4272 73.2564H39.6112V83.7324H43.4272ZM58.5607 83.7324C58.7167 83.7324 58.8427 83.7864 58.9387 83.8944C59.0467 84.0024 59.1007 84.1284 59.1007 84.2724C59.1007 84.4284 59.0467 84.5544 58.9387 84.6504C58.8427 84.7464 58.7167 84.7944 58.5607 84.7944H51.9547C51.7987 84.7944 51.6667 84.7464 51.5587 84.6504C51.4627 84.5424 51.4147 84.4104 51.4147 84.2544V72.7344C51.4147 72.5784 51.4627 72.4524 51.5587 72.3564C51.6667 72.2484 51.7987 72.1944 51.9547 72.1944H58.5607C58.7167 72.1944 58.8427 72.2484 58.9387 72.3564C59.0467 72.4524 59.1007 72.5784 59.1007 72.7344C59.1007 72.8904 59.0467 73.0164 58.9387 73.1124C58.8427 73.2084 58.7167 73.2564 58.5607 73.2564H52.5487V77.7744H57.7507C57.9067 77.7744 58.0327 77.8284 58.1287 77.9364C58.2367 78.0324 58.2907 78.1584 58.2907 78.3144C58.2907 78.4704 58.2367 78.5964 58.1287 78.6924C58.0327 78.7884 57.9067 78.8364 57.7507 78.8364H52.5487V83.7324H58.5607ZM70.8431 83.8224C71.0231 83.9424 71.1131 84.0924 71.1131 84.2724C71.1131 84.3324 71.0891 84.4104 71.0411 84.5064C70.9931 84.5904 70.9271 84.6564 70.8431 84.7044C70.7591 84.7524 70.6691 84.7764 70.5731 84.7764C70.4531 84.7764 70.3511 84.7524 70.2671 84.7044C69.9311 84.5124 69.6611 84.2004 69.4571 83.7684C69.2531 83.3364 69.1511 82.6464 69.1511 81.6984C69.1511 80.8584 68.9171 80.2704 68.4491 79.9344C67.9811 79.5864 67.4231 79.4124 66.7751 79.4124H62.7791V84.2544C62.7791 84.4104 62.7311 84.5424 62.6351 84.6504C62.5391 84.7464 62.4131 84.7944 62.2571 84.7944C62.0891 84.7944 61.9451 84.7464 61.8251 84.6504C61.7051 84.5424 61.6451 84.4104 61.6451 84.2544V72.7344C61.6451 72.5784 61.6931 72.4524 61.7891 72.3564C61.8971 72.2484 62.0291 72.1944 62.1851 72.1944H67.0451C67.7291 72.1944 68.3411 72.3444 68.8811 72.6444C69.4211 72.9324 69.8411 73.3344 70.1411 73.8504C70.4531 74.3664 70.6091 74.9484 70.6091 75.5964C70.6091 76.3644 70.4051 77.0424 69.9971 77.6304C69.6011 78.2064 69.0791 78.6024 68.4311 78.8184C68.9591 79.0224 69.3911 79.3704 69.7271 79.8624C70.0631 80.3424 70.2371 80.9304 70.2491 81.6264C70.2611 82.3704 70.3091 82.8924 70.3931 83.1924C70.4891 83.4924 70.6391 83.7024 70.8431 83.8224ZM67.0991 78.4224C67.5191 78.3864 67.9091 78.2484 68.2691 78.0084C68.6291 77.7684 68.9171 77.4444 69.1331 77.0364C69.3491 76.6284 69.4571 76.1604 69.4571 75.6324C69.4571 74.9484 69.2231 74.3844 68.7551 73.9404C68.2991 73.4844 67.6991 73.2564 66.9551 73.2564H62.7791V78.4224H67.0991Z" fill="white"/>
</svg>
